<svg width="206" height="87" viewBox="0 0 206 87" fill="none" xmlns="http://www.w3.org/2000/svg">
    <path d="M16.256 52.6347C14.272 52.6347 12.3947 52.4 10.624 51.9307C8.87467 51.4614 7.33867 50.8534 6.016 50.1067C4.69333 49.36 3.648 48.5814 2.88 47.7707L6.144 41.0507C6.63467 41.6907 7.38133 42.3734 8.384 43.0987C9.38667 43.824 10.528 44.4427 11.808 44.9547C13.1093 45.4667 14.4 45.7227 15.68 45.7227C17.3653 45.7227 18.7733 45.264 19.904 44.3467C21.056 43.408 21.632 42.096 21.632 40.4107C21.632 39.3227 21.3653 38.384 20.832 37.5947C20.32 36.784 19.6267 36.0694 18.752 35.4507C17.8987 34.8107 16.576 33.9467 14.784 32.8587C12.3307 31.3654 10.4107 30.096 9.024 29.0507C7.63733 27.984 6.432 26.5974 5.408 24.8907C4.40533 23.1627 3.904 21.0827 3.904 18.6507C3.904 16.2827 4.40533 14.192 5.408 12.3787C6.432 10.544 7.936 9.11469 9.92 8.09069C11.904 7.06669 14.2933 6.55469 17.088 6.55469C21.632 6.55469 25.4293 7.94136 28.48 10.7147L24.896 17.2427C24.5333 16.7307 23.9893 16.176 23.264 15.5787C22.5387 14.96 21.664 14.4374 20.64 14.0107C19.616 13.5627 18.5387 13.3387 17.408 13.3387C15.7653 13.3387 14.4853 13.8187 13.568 14.7787C12.672 15.7174 12.224 16.9014 12.224 18.3307C12.224 19.4187 12.4907 20.3894 13.024 21.2427C13.5787 22.0747 14.2933 22.8214 15.168 23.4827C16.064 24.144 17.2587 24.9227 18.752 25.8187C21.4613 27.4187 23.5307 28.7627 24.96 29.8507C26.3893 30.9387 27.584 32.3254 28.544 34.0107C29.5253 35.6747 30.016 37.7227 30.016 40.1547C30.016 42.736 29.4613 44.9654 28.352 46.8427C27.2427 48.72 25.6533 50.16 23.584 51.1627C21.5147 52.144 19.072 52.6347 16.256 52.6347ZM62.266 20.0587V51.9307H55.034L54.874 47.8027C53.9353 49.2747 52.7727 50.4587 51.386 51.3547C50.0207 52.2507 48.2713 52.6987 46.138 52.6987C42.9807 52.6987 40.6233 51.696 39.066 49.6907C37.5087 47.6854 36.73 44.8267 36.73 41.1147V20.0587H44.73V40.4107C44.73 42.2667 45.0607 43.728 45.722 44.7947C46.4047 45.84 47.482 46.3627 48.954 46.3627C49.9567 46.3627 50.8527 46.1174 51.642 45.6267C52.4527 45.1147 53.0927 44.4107 53.562 43.5147C54.0313 42.5974 54.266 41.5627 54.266 40.4107V20.0587H62.266ZM71.864 20.0587H79.48V21.0827L78.84 25.5627C79.096 24.368 79.672 23.2907 80.568 22.3307C81.4853 21.3707 82.6053 20.6134 83.928 20.0587C85.2507 19.504 86.6267 19.2267 88.056 19.2267C92.152 19.2267 95.2027 20.6667 97.208 23.5467C99.2133 26.4054 100.216 30.4054 100.216 35.5467C100.216 39.1947 99.6827 42.32 98.616 44.9227C97.5493 47.504 96.056 49.4667 94.136 50.8107C92.216 52.1547 89.976 52.8267 87.416 52.8267C85.1973 52.8267 83.352 52.144 81.88 50.7787C80.408 49.392 79.3947 47.664 78.84 45.5947L79.608 51.6107V65.8827H71.864V20.0587ZM85.56 46.4907C86.648 46.4907 87.6613 46.128 88.6 45.4027C89.56 44.6774 90.3387 43.5254 90.936 41.9467C91.5333 40.3467 91.832 38.32 91.832 35.8667C91.832 33.584 91.5547 31.6854 91 30.1707C90.4453 28.656 89.6987 27.5467 88.76 26.8427C87.8427 26.1174 86.8187 25.7547 85.688 25.7547C84.408 25.7547 83.3093 26.2134 82.392 27.1307C81.4747 28.048 80.7813 29.3174 80.312 30.9387C79.8427 32.5387 79.608 34.352 79.608 36.3787C79.608 38.384 79.8427 40.1547 80.312 41.6907C80.8027 43.2054 81.496 44.3894 82.392 45.2427C83.288 46.0747 84.344 46.4907 85.56 46.4907ZM120.602 52.7627C117.167 52.7627 114.33 52.0374 112.09 50.5867C109.85 49.1147 108.207 47.152 107.161 44.6987C106.138 42.2454 105.626 39.472 105.626 36.3787C105.626 33.2214 106.202 30.352 107.354 27.7707C108.527 25.168 110.234 23.1094 112.474 21.5947C114.714 20.0587 117.38 19.2907 120.474 19.2907C125.082 19.2907 128.378 20.624 130.362 23.2907C132.346 25.936 133.338 29.8934 133.338 35.1627C133.338 36.1867 133.295 37.3387 133.21 38.6187H114.01C114.138 41.2 114.852 43.1947 116.154 44.6027C117.476 45.9894 119.407 46.6827 121.946 46.6827C123.268 46.6827 124.687 46.3947 126.202 45.8187C127.716 45.2214 128.836 44.5067 129.562 43.6747L132.122 49.7547C129.114 51.76 125.274 52.7627 120.602 52.7627ZM125.21 33.6267C125.21 30.4907 124.815 28.336 124.026 27.1627C123.258 25.968 122.138 25.3707 120.666 25.3707C118.596 25.3707 116.986 26.1387 115.834 27.6747C114.703 29.2107 114.074 31.1947 113.946 33.6267H125.21ZM140.541 20.0587H147.773L148.157 25.6907C148.84 24.048 149.917 22.64 151.389 21.4667C152.861 20.272 154.941 19.6747 157.629 19.6747C158.696 19.6747 159.677 19.8454 160.573 20.1867L158.781 28.5707C158.418 28.208 157.981 27.952 157.469 27.8027C156.978 27.632 156.37 27.5467 155.645 27.5467C154.152 27.5467 152.861 27.8667 151.773 28.5067C150.706 29.1254 149.896 29.8507 149.341 30.6827C148.808 31.5147 148.541 32.1974 148.541 32.7307V51.9307H140.541V20.0587ZM171.699 52.8267C169.8 52.8267 168.2 52.4 166.899 51.5467C165.597 50.6934 164.616 49.5414 163.955 48.0907C163.315 46.64 162.995 45.0187 162.995 43.2267C162.995 41.6694 163.507 40.1227 164.531 38.5867C165.576 37.0294 167.421 35.7067 170.067 34.6187C172.712 33.5307 176.285 32.9867 180.787 32.9867V31.5147C180.787 29.7654 180.36 28.4107 179.507 27.4507C178.675 26.4907 177.203 26.0107 175.091 26.0107C173.427 26.0107 171.795 26.2987 170.195 26.8747C168.616 27.4294 167.453 28.1227 166.707 28.9547L164.147 22.8107C165.597 21.8294 167.4 20.9974 169.555 20.3147C171.709 19.632 174.003 19.2907 176.435 19.2907C179.485 19.2907 181.896 19.76 183.667 20.6987C185.459 21.6374 186.717 22.96 187.443 24.6667C188.168 26.3734 188.531 28.4854 188.531 31.0027V51.9307H181.683L181.107 47.3867C179.976 49.2214 178.632 50.5867 177.075 51.4827C175.539 52.3787 173.747 52.8267 171.699 52.8267ZM175.091 46.6827C176.072 46.6827 177.106 46.288 178.194 45.4987C179.283 44.7094 180.147 43.7174 180.787 42.5227V37.9787C180.488 37.936 179.976 37.9147 179.251 37.9147C177.096 37.9147 175.165 38.2774 173.459 39.0027C171.773 39.7067 170.931 40.8587 170.931 42.4587C170.931 43.9734 171.261 45.0614 171.923 45.7227C172.605 46.3627 173.661 46.6827 175.091 46.6827Z" fill="white"/>
    <path d="M107.592 79.9396C106.764 79.9396 106.014 79.7596 105.342 79.3996C104.682 79.0276 104.136 78.5356 103.704 77.9236C103.272 77.2996 102.96 76.6156 102.768 75.8716V79.4356H98.808V52.0756H103.128V61.5076L102.768 64.6036C102.948 63.8356 103.314 63.1816 103.866 62.6416C104.43 62.1016 105.078 61.6996 105.81 61.4356C106.542 61.1716 107.268 61.0396 107.988 61.0396C110.22 61.0396 111.906 61.8316 113.046 63.4156C114.186 64.9876 114.756 67.3156 114.756 70.3996C114.756 72.4756 114.438 74.2336 113.802 75.6736C113.178 77.1016 112.326 78.1696 111.246 78.8776C110.166 79.5856 108.948 79.9396 107.592 79.9396ZM106.548 76.3756C107.172 76.3756 107.748 76.1716 108.276 75.7636C108.804 75.3556 109.23 74.7076 109.554 73.8196C109.878 72.9196 110.04 71.7796 110.04 70.3996C110.04 69.1156 109.884 68.0476 109.572 67.1956C109.272 66.3436 108.864 65.7196 108.348 65.3236C107.832 64.9156 107.256 64.7116 106.62 64.7116C105.9 64.7116 105.282 64.9696 104.766 65.4856C104.25 66.0016 103.86 66.7156 103.596 67.6276C103.332 68.5276 103.2 69.5476 103.2 70.6876C103.2 71.8156 103.332 72.8116 103.596 73.6756C103.872 74.5276 104.262 75.1936 104.766 75.6736C105.27 76.1416 105.864 76.3756 106.548 76.3756ZM122.584 79.9396C121.516 79.9396 120.616 79.6996 119.884 79.2196C119.152 78.7396 118.6 78.0916 118.228 77.2756C117.868 76.4596 117.688 75.5476 117.688 74.5396C117.688 73.6636 117.976 72.7936 118.552 71.9296C119.14 71.0536 120.178 70.3096 121.666 69.6976C123.154 69.0856 125.164 68.7796 127.696 68.7796V67.9516C127.696 66.9676 127.456 66.2056 126.976 65.6656C126.508 65.1256 125.68 64.8556 124.492 64.8556C123.556 64.8556 122.638 65.0176 121.738 65.3416C120.85 65.6536 120.196 66.0436 119.776 66.5116L118.336 63.0556C119.152 62.5036 120.166 62.0356 121.378 61.6516C122.59 61.2676 123.88 61.0756 125.248 61.0756C126.964 61.0756 128.32 61.3396 129.316 61.8676C130.324 62.3956 131.032 63.1396 131.44 64.0996C131.848 65.0596 132.052 66.2476 132.052 67.6636V79.4356H128.2L127.876 76.8796C127.24 77.9116 126.484 78.6796 125.608 79.1836C124.744 79.6876 123.736 79.9396 122.584 79.9396ZM124.492 76.4836C125.044 76.4836 125.626 76.2616 126.238 75.8176C126.85 75.3736 127.336 74.8156 127.696 74.1436V71.5876C127.528 71.5636 127.24 71.5516 126.832 71.5516C125.62 71.5516 124.534 71.7556 123.574 72.1636C122.626 72.5596 122.152 73.2076 122.152 74.1076C122.152 74.9596 122.338 75.5716 122.71 75.9436C123.094 76.3036 123.688 76.4836 124.492 76.4836ZM146.419 61.0756C148.207 61.0756 149.551 61.6456 150.451 62.7856C151.363 63.9136 151.819 65.5156 151.819 67.5916V79.4356H147.211V67.9876C147.211 66.9676 146.995 66.1576 146.563 65.5576C146.131 64.9456 145.495 64.6396 144.655 64.6396C144.091 64.6396 143.563 64.7836 143.071 65.0716C142.591 65.3596 142.207 65.7616 141.919 66.2776C141.631 66.7816 141.487 67.3516 141.487 67.9876V79.4356H136.879V61.5076H141.055L141.145 63.8656C142.381 62.0056 144.139 61.0756 146.419 61.0756ZM157.132 52.0756H161.38V65.5036L161.236 69.7156L166.744 61.5076H171.856L165.592 69.7516L172.468 79.4356H167.032L161.236 70.7596L161.38 75.1516V79.4356H157.132V52.0756Z" fill="white"/>
</svg>
