<svg width="48" height="48" viewBox="0 0 48 48" fill="none" xmlns="http://www.w3.org/2000/svg">
<path d="M2.66667 48C1.91111 48 1.27822 47.616 0.768 46.848C0.256 46.0827 0 45.1333 0 44C0 42.8667 0.256 41.9173 0.768 41.152C1.27822 40.384 1.91111 40 2.66667 40H45.3333C46.0889 40 46.7218 40.384 47.232 41.152C47.744 41.9173 48 42.8667 48 44C48 45.1333 47.744 46.0827 47.232 46.848C46.7218 47.616 46.0889 48 45.3333 48H2.66667ZM2.66667 28C1.91111 28 1.27822 27.616 0.768 26.848C0.256 26.0827 0 25.1333 0 24C0 22.8667 0.256 21.916 0.768 21.148C1.27822 20.3827 1.91111 20 2.66667 20H45.3333C46.0889 20 46.7218 20.3827 47.232 21.148C47.744 21.916 48 22.8667 48 24C48 25.1333 47.744 26.0827 47.232 26.848C46.7218 27.616 46.0889 28 45.3333 28H2.66667ZM2.66667 8C1.91111 8 1.27822 7.61733 0.768 6.852C0.256 6.084 0 5.13333 0 4C0 2.86667 0.256 1.916 0.768 1.148C1.27822 0.382667 1.91111 0 2.66667 0H45.3333C46.0889 0 46.7218 0.382667 47.232 1.148C47.744 1.916 48 2.86667 48 4C48 5.13333 47.744 6.084 47.232 6.852C46.7218 7.61733 46.0889 8 45.3333 8H2.66667Z" fill="white"/>
</svg>
